<?xml version="1.0" encoding="UTF-8"?>
<!-- Generator: Adobe Illustrator 23.0.6, SVG Export Plug-In . SVG Version: 6.00 Build 0)  -->
<svg version="1.1" id="Ebene_1" xmlns="http://www.w3.org/2000/svg" xmlns:xlink="http://www.w3.org/1999/xlink" x="0px" y="0px" viewBox="0 0 200 60" style="enable-background:new 0 0 200 60;" xml:space="preserve">
<style type="text/css">
	.st0{fill:#422666;}
	.st1{fill:#189CD9;}
	.st2{fill:#78B42A;}
	.st3{fill:#FCC308;}
	.st4{fill:#C71E1B;}
	.st5{fill:#AA1266;}
	.st6{fill:#05252C;}
	.st7{fill:#2B7531;}
</style>
<g>
	<g>
		<path class="st0" d="M11.04,35.74c-2.9,0-6.05-0.17-7.48-0.17H-0.1V32.8c1.09-0.25,2.4-0.46,3.66-0.55V10.52    C2.3,10.43,0.99,10.22-0.1,9.97V7.2h3.53c2.27,0,5.59-0.13,8.91-0.13c8.91,0,14.42,4.08,14.42,13.91    C26.76,30.74,20.33,35.74,11.04,35.74z M11.96,10.86c-1.39,0-2.86,0.04-3.87,0.08v20.68c0.92,0.13,2.31,0.21,3.4,0.21    c6.14,0,10.38-3.24,10.38-10.51C21.88,14.6,18.9,10.86,11.96,10.86z"/>
		<path class="st1" d="M30.63,29.9v-2.77c1.09-0.25,2.4-0.46,3.66-0.55V12.5c-1.01-0.17-2.44-0.34-3.66-0.42V9.31    c2.35-0.25,5.38-0.42,8.11-0.29v17.57c1.22,0.08,2.48,0.29,3.49,0.55v2.77H30.63z"/>
		<path class="st2" d="M68.75,29.9v-2.77c1.09-0.25,2.4-0.46,3.66-0.55V12.5c-1.01-0.17-2.44-0.34-3.66-0.42V9.31    c2.35-0.25,5.38-0.42,8.11-0.29v17.57c1.22,0.08,2.48,0.29,3.49,0.55v2.77H68.75z"/>
		<path class="st3" d="M93.79,35.95c-4.46,0-5.8-1.72-5.8-6.39V18.17H84v-3.49h3.99V8.04l4.5-1.22v7.86h5.46v3.49h-5.46v10    c0,3.11,0.63,3.95,2.73,3.95c0.92,0,1.81-0.13,2.56-0.29l0.38,3.62C96.9,35.74,95.18,35.95,93.79,35.95z"/>
		<path class="st4" d="M114.72,31.88c0-1.35,0.04-2.73,0.21-3.87l-0.04-0.04c-1.01,2.48-3.66,4.33-6.94,4.33    c-3.57,0-5.89-2.23-5.89-5.63c0-4.71,4.79-7.19,12.32-7.27v-1.39c0-2.61-0.97-4.12-4.08-4.12c-1.13,0-2.48,0.25-3.53,0.59    c-0.08,0.92-0.25,2.02-0.46,3.11h-2.77v-5.88c2.1-0.67,4.67-1.13,7.15-1.13c6.43,0,8.24,2.77,8.24,7.06V28.4    c1.01,0.17,2.35,0.34,3.49,0.42v2.77C120.23,31.84,117.16,32.01,114.72,31.88z M114.39,22.43c-5.76,0-7.99,1.39-7.99,3.57    c0,1.64,1.13,2.82,2.9,2.82c3.07,0,5.09-2.94,5.09-5.93V22.43z"/>
		<path class="st5" d="M125.57,41.14v-2.77c1.01-0.25,2.27-0.46,3.45-0.55V6.52c-1.01-0.17-2.4-0.34-3.57-0.42V3.33    c2.4-0.25,5.34-0.42,8.07-0.29v34.78c1.22,0.08,2.44,0.29,3.45,0.55v2.77H125.57z"/>
		<path class="st6" d="M150.1,35.95c-4.46,0-5.8-1.72-5.8-6.39V18.17h-3.99v-3.49h3.99V8.04l4.5-1.22v7.86h5.46v3.49h-5.46v10    c0,3.11,0.63,3.95,2.73,3.95c0.92,0,1.81-0.13,2.56-0.29l0.38,3.62C153.21,35.74,151.49,35.95,150.1,35.95z"/>
		<path class="st6" d="M171.96,31.88c0-1.35,0.04-2.73,0.21-3.87l-0.04-0.04c-1.01,2.48-3.66,4.33-6.94,4.33    c-3.57,0-5.89-2.23-5.89-5.63c0-4.71,4.79-7.19,12.32-7.27v-1.39c0-2.61-0.97-4.12-4.08-4.12c-1.13,0-2.48,0.25-3.53,0.59    c-0.08,0.92-0.25,2.02-0.46,3.11h-2.77v-5.88c2.1-0.67,4.67-1.13,7.15-1.13c6.43,0,8.24,2.77,8.24,7.06V28.4    c1.01,0.17,2.35,0.34,3.49,0.42v2.77C177.47,31.84,174.4,32.01,171.96,31.88z M171.63,22.43c-5.76,0-7.99,1.39-7.99,3.57    c0,1.64,1.13,2.82,2.9,2.82c3.07,0,5.09-2.94,5.09-5.93V22.43z"/>
		<path class="st7" d="M63.71,22.04c0,4.88-2.98,7.69-8.66,7.69c-5.88,0-9.21-3.49-9.21-8.24c0-4.88,2.98-7.69,8.66-7.69    C60.39,13.8,63.71,17.29,63.71,22.04z M48.95,21.7c0,2.1,1.81,3.7,5.72,3.7c4.29,0,5.88-1.43,5.88-3.61    c0-1.98-1.64-3.66-5.76-3.66C50.63,18.13,48.95,19.6,48.95,21.7z"/>
		<path class="st7" d="M63.7,39.64c-0.13,4.87-3.19,7.61-8.87,7.45c-5.88-0.16-9.11-3.74-8.98-8.49c0.13-4.87,3.19-7.61,8.87-7.45    C60.6,31.31,63.83,34.89,63.7,39.64z M48.96,38.9c-0.06,2.1,1.71,3.75,5.61,3.85c4.29,0.12,5.92-1.27,5.98-3.45    c0.05-1.98-1.54-3.7-5.66-3.81C50.74,35.38,49.01,36.8,48.96,38.9z"/>
		<path class="st6" d="M199.9,22.04c0,4.88-2.98,7.69-8.66,7.69c-5.88,0-9.21-3.49-9.21-8.24c0-4.88,2.98-7.69,8.66-7.69    C196.58,13.8,199.9,17.29,199.9,22.04z M185.15,21.7c0,2.1,1.81,3.7,5.72,3.7c4.29,0,5.88-1.43,5.88-3.61    c0-1.98-1.64-3.66-5.76-3.66C186.83,18.13,185.15,19.6,185.15,21.7z"/>
		<path class="st6" d="M199.9,39.4c0,4.88-2.98,7.69-8.66,7.69c-5.88,0-9.21-3.49-9.21-8.24c0-4.88,2.98-7.69,8.66-7.69    C196.58,31.16,199.9,34.65,199.9,39.4z M185.15,39.06c0,2.1,1.81,3.7,5.72,3.7c4.29,0,5.88-1.43,5.88-3.61    c0-1.98-1.64-3.66-5.76-3.66C186.83,35.49,185.15,36.96,185.15,39.06z"/>
	</g>
	<g>
		<path class="st5" d="M146.31,52.95v-1.47l1.68-2.56c1.45-2.16,1.87-3.38,1.87-4.65c0-1.03-0.41-1.86-1.43-1.86    c-0.57,0-1.11,0.21-1.73,0.58l-0.35-1.47c0.83-0.42,1.61-0.69,2.49-0.69c2.03,0,2.92,1.4,2.92,3.15c0,1.7-0.71,3.33-2.12,5.47    l-1.27,1.91v0.02c0.92-0.04,2.35-0.05,3.66-0.05v1.63H146.31z"/>
		<path class="st5" d="M156.85,53.13c-2.28,0-3.56-1.52-3.56-6.03c0-4.47,1.61-6.26,3.68-6.26c2.28,0,3.56,1.52,3.56,6.03    C160.53,51.34,158.92,53.13,156.85,53.13z M156.9,42.32c-1.15,0-1.75,1.4-1.75,4.63c0,3.27,0.6,4.69,1.75,4.69    c1.17,0,1.77-1.4,1.77-4.63C158.67,43.74,158.07,42.32,156.9,42.32z"/>
		<path class="st5" d="M161.23,52.95v-1.47l1.68-2.56c1.45-2.16,1.87-3.38,1.87-4.65c0-1.03-0.41-1.86-1.43-1.86    c-0.57,0-1.11,0.21-1.73,0.58l-0.35-1.47c0.83-0.42,1.61-0.69,2.49-0.69c2.03,0,2.92,1.4,2.92,3.15c0,1.7-0.71,3.33-2.12,5.47    l-1.27,1.91v0.02c0.92-0.04,2.35-0.05,3.66-0.05v1.63H161.23z"/>
		<path class="st5" d="M171.77,53.13c-2.28,0-3.56-1.52-3.56-6.03c0-4.47,1.61-6.26,3.68-6.26c2.28,0,3.56,1.52,3.56,6.03    C175.45,51.34,173.84,53.13,171.77,53.13z M171.83,42.32c-1.15,0-1.75,1.4-1.75,4.63c0,3.27,0.6,4.69,1.75,4.69    c1.17,0,1.77-1.4,1.77-4.63C173.59,43.74,172.99,42.32,171.83,42.32z"/>
	</g>
</g>
</svg>